<svg xmlns="http://www.w3.org/2000/svg" viewBox="698.675 -208.358 26.357 25.958">
  <defs>
    <style>
      .cls-1 {
        fill: #747474;
      }
    </style>
  </defs>
  <g id="_001-ring" data-name="001-ring" transform="translate(698.675 -208.358)">
    <g id="Groupe_21" data-name="Groupe 21" transform="translate(0)">
      <path id="Tracé_30" data-name="Tracé 30" class="cls-1" d="M25.969,18.551C22.869,15.5,22.4,13.965,22.4,9.085A9.155,9.155,0,0,0,13.179,0,9.155,9.155,0,0,0,3.956,9.085,15.126,15.126,0,0,1,3.517,13.9,11.116,11.116,0,0,1,.388,18.551a1.3,1.3,0,0,0,.932,2.215H8.633l-.066.649a4.612,4.612,0,0,0,9.223,0l-.066-.649h7.313A1.3,1.3,0,0,0,25.969,18.551ZM13.179,24.66a3.27,3.27,0,0,1-3.294-3.245l.066-.649h6.455l.067.649A3.27,3.27,0,0,1,13.179,24.66ZM1.321,19.468c3.953-3.894,3.953-6.489,3.953-10.383a7.907,7.907,0,0,1,15.811,0c0,3.894,0,6.489,3.953,10.383Z" transform="translate(0)"/>
    </g>
  </g>
</svg>
