<svg xmlns="http://www.w3.org/2000/svg" viewBox="770.309 -210.785 25.635 29.68">
  <defs>
    <style>
      .cls-1 {
        fill: #747474;
      }
    </style>
  </defs>
  <g id="_004-avatar" data-name="004-avatar" transform="translate(770.309 -210.785)">
    <g id="Groupe_5" data-name="Groupe 5" transform="translate(0)">
      <path id="Tracé_6" data-name="Tracé 6" class="cls-1" d="M143.486,15.993h.2a5.8,5.8,0,0,0,4.4-1.875c2.4-2.667,2-7.24,1.96-7.677-.156-3.276-1.729-4.843-3.027-5.575A7.022,7.022,0,0,0,143.661,0h-.106A7.036,7.036,0,0,0,140.2.842c-1.311.731-2.908,2.3-3.064,5.6-.044.436-.443,5.009,1.96,7.677A5.776,5.776,0,0,0,143.486,15.993Zm-4.687-9.4c0-.018.006-.037.006-.049.206-4.407,3.383-4.88,4.743-4.88h.075c1.685.037,4.55.713,4.743,4.88a.119.119,0,0,0,.006.049c.006.043.443,4.222-1.542,6.423a4.121,4.121,0,0,1-3.214,1.315h-.062a4.107,4.107,0,0,1-3.208-1.315C138.368,10.83,138.793,6.632,138.8,6.595Z" transform="translate(-130.778)"/>
      <path id="Tracé_7" data-name="Tracé 7" class="cls-1" d="M61.706,266.887v-.018c0-.049-.006-.1-.006-.154-.037-1.217-.119-4.063-2.827-4.972l-.062-.018a18.129,18.129,0,0,1-5.18-2.323.85.85,0,0,0-1.173.2.821.821,0,0,0,.206,1.156,19.571,19.571,0,0,0,5.7,2.563c1.454.51,1.616,2.04,1.66,3.442a1.214,1.214,0,0,0,.006.154,10.992,10.992,0,0,1-.131,1.9,23.245,23.245,0,0,1-11,2.52,23.379,23.379,0,0,1-11.009-2.526,10.4,10.4,0,0,1-.131-1.9c0-.049.006-.1.006-.154.044-1.4.206-2.932,1.66-3.442a19.751,19.751,0,0,0,5.7-2.563.821.821,0,0,0,.206-1.156.85.85,0,0,0-1.173-.2,17.933,17.933,0,0,1-5.18,2.323c-.025.006-.044.012-.062.018-2.709.916-2.79,3.762-2.827,4.972a1.22,1.22,0,0,1-.006.154v.018a9.288,9.288,0,0,0,.318,2.784.792.792,0,0,0,.325.387c.187.123,4.674,2.938,12.182,2.938s11.995-2.821,12.182-2.938a.826.826,0,0,0,.325-.387A9.743,9.743,0,0,0,61.706,266.887Z" transform="translate(-36.073 -243.31)"/>
    </g>
  </g>
</svg>
