<svg id="Calque_1" data-name="Calque 1" xmlns="http://www.w3.org/2000/svg" viewBox="0 0 28.1 26.86"><defs><style>.cls-1{fill:#757575;stroke:#757575;stroke-miterlimit:10;stroke-width:0.5px;}</style></defs><title>program</title><g id="Groupe_7" data-name="Groupe 7"><g id="Programmes"><path id="Tracé_8" data-name="Tracé 8" class="cls-1" d="M33.36,22.26,32,20.85a1.44,1.44,0,0,0-2,0l0,0-7.59,7.47-1,3.79-.3.24A.46.46,0,0,0,21,33l0,0h0a.48.48,0,0,0,.68,0h0l.25-.24,3.84-1,7.59-7.47a1.39,1.39,0,0,0,.08-2Zm-9.91,6.31,5-5,2.07,2-5,5Zm-.44,1,1.58,1.55-2.17.58Zm9.66-5.92L31.29,25l-2.12-2,1.38-1.36a.48.48,0,0,1,.68,0h0l1.38,1.36a.43.43,0,0,1,.12.6Z" transform="translate(-5.95 -6.57)"/><path id="Tracé_9" data-name="Tracé 9" class="cls-1" d="M19.51,12.69a.49.49,0,1,0,0,1h8.87a.49.49,0,1,0,0-1Z" transform="translate(-5.95 -6.57)"/><path id="Tracé_10" data-name="Tracé 10" class="cls-1" d="M28.87,20a.46.46,0,0,0-.44-.49H19.51a.49.49,0,1,0,0,1h8.87A.49.49,0,0,0,28.87,20Z" transform="translate(-5.95 -6.57)"/><path id="Tracé_11" data-name="Tracé 11" class="cls-1" d="M16.35,10.36a.48.48,0,0,0-.68,0h0L12.61,14l-1.87-1.41a.54.54,0,0,0-.69.1.52.52,0,0,0,.1.68L12.41,15a.71.71,0,0,0,.3.1.45.45,0,0,0,.39-.19L16.5,11A.65.65,0,0,0,16.35,10.36Z" transform="translate(-5.95 -6.57)"/><path id="Tracé_12" data-name="Tracé 12" class="cls-1" d="M16.35,17.16a.48.48,0,0,0-.68,0h0l-3.06,3.54-1.87-1.41a.54.54,0,0,0-.69.1.52.52,0,0,0,.1.68l2.27,1.65a.71.71,0,0,0,.3.1.45.45,0,0,0,.39-.19l3.4-3.88A.65.65,0,0,0,16.35,17.16Z" transform="translate(-5.95 -6.57)"/><path id="Tracé_13" data-name="Tracé 13" class="cls-1" d="M15.66,24.49,12.61,28l-1.87-1.41a.54.54,0,0,0-.69.1.52.52,0,0,0,.1.68l2.27,1.65a.71.71,0,0,0,.3.1A.56.56,0,0,0,13.1,29l3.4-3.88a.47.47,0,0,0,0-.66l0,0A.59.59,0,0,0,15.66,24.49Z" transform="translate(-5.95 -6.57)"/><path id="Tracé_14" data-name="Tracé 14" class="cls-1" d="M18.52,32.11H12.21a5,5,0,0,1-5-4.95V12.74a5,5,0,0,1,5-4.9H26.8a5,5,0,0,1,5,4.9v5.73a.49.49,0,0,0,1,0V12.74a6,6,0,0,0-6-5.92H12.21a6,6,0,0,0-6,5.92V27.11a6,6,0,0,0,6,5.92h6.31a.46.46,0,0,0,.49-.49C19,32.25,18.82,32.11,18.52,32.11Z" transform="translate(-5.95 -6.57)"/></g></g></svg>